<?xml version="1.0" standalone="no"?>
<!DOCTYPE svg PUBLIC "-//W3C//DTD SVG 20010904//EN"
 "http://www.w3.org/TR/2001/REC-SVG-20010904/DTD/svg10.dtd">
<svg version="1.0" xmlns="http://www.w3.org/2000/svg"
 width="100%" height="100%" viewBox="0 0 1080.000000 1080.000000"
 preserveAspectRatio="xMidYMid meet">

<g transform="translate(0.000000,1080.000000) scale(0.100000,-0.100000)"
fill="#000000" stroke="none">
<path d="M5407 9043 c-4 -3 -7 -29 -7 -57 0 -28 -4 -67 -10 -86 -5 -19 -14
-120 -20 -225 -6 -104 -15 -212 -20 -240 -5 -27 -9 -87 -9 -132 l-1 -83 29 0
c16 0 33 6 39 13 6 7 15 64 19 127 l8 115 191 -4 c189 -3 192 -3 247 24 80 37
121 89 142 179 16 68 16 78 2 135 -27 107 -109 182 -220 202 -148 26 -377 45
-390 32z m311 -87 c104 -19 152 -44 195 -99 24 -32 27 -44 27 -115 0 -71 -3
-83 -29 -119 -60 -83 -119 -98 -336 -86 l-130 8 1 45 c1 66 25 363 30 378 5
17 110 12 242 -12z"/>
<path d="M4495 8713 c-48 -25 -86 -65 -107 -113 -15 -34 -21 -41 -28 -30 -6 8
-10 22 -10 31 0 9 -8 27 -18 39 -16 20 -21 21 -43 10 -13 -7 -25 -14 -27 -15
-2 -2 10 -43 26 -91 16 -49 39 -123 51 -164 12 -41 29 -88 36 -103 8 -16 15
-38 15 -49 0 -11 6 -34 14 -51 7 -18 17 -50 22 -72 10 -42 26 -52 70 -41 23 6
23 8 10 44 -7 20 -23 71 -36 112 -12 41 -29 93 -38 115 -11 26 -17 68 -17 125
0 78 2 88 28 122 16 20 48 46 72 58 47 23 57 37 48 69 -6 24 -25 25 -68 4z"/>
<path d="M6232 8627 c-13 -45 -28 -95 -34 -112 -5 -16 -14 -46 -18 -65 -4 -19
-15 -55 -23 -80 -8 -25 -22 -72 -32 -105 -9 -33 -21 -75 -27 -94 -9 -29 -8
-36 8 -48 23 -16 53 -17 59 0 2 6 20 71 40 142 52 180 72 228 117 272 38 37
40 38 124 40 94 2 104 6 104 34 0 48 -140 51 -210 5 l-39 -26 6 33 c3 17 10
40 15 51 12 22 -4 36 -42 36 -23 0 -27 -7 -48 -83z"/>
<path d="M6737 8475 c-165 -61 -258 -259 -196 -417 26 -67 106 -150 173 -179
72 -32 193 -32 256 -1 222 110 252 415 55 547 -91 60 -206 80 -288 50z m226
-89 c49 -24 58 -33 91 -95 42 -81 44 -104 14 -190 -28 -77 -104 -154 -171
-172 -124 -33 -261 46 -293 170 -31 120 53 275 166 310 52 15 131 6 193 -23z"/>
<path d="M3796 8441 c-76 -38 -120 -82 -153 -151 -93 -197 70 -451 289 -450
76 0 185 46 246 104 60 55 90 137 56 150 -27 10 -33 7 -53 -31 -54 -106 -180
-167 -295 -143 -43 9 -66 21 -103 56 -47 43 -48 44 -28 59 11 9 47 30 80 47
144 72 312 163 337 180 26 18 27 21 14 46 -23 43 -107 119 -156 141 -70 32
-160 28 -234 -8z m214 -59 c33 -13 90 -66 90 -84 0 -12 -26 -27 -235 -138 -44
-23 -84 -46 -90 -49 -5 -4 -22 -12 -37 -19 -26 -11 -29 -9 -43 18 -41 80 18
214 118 267 60 31 128 33 197 5z"/>
<path d="M7552 8340 c-26 -43 -1 -90 49 -90 32 0 49 17 49 50 0 53 -72 82 -98
40z"/>
<path d="M4818 8259 c-21 -12 -24 -69 -6 -87 30 -30 108 -4 108 36 0 49 -57
78 -102 51z"/>
<path d="M7410 8122 c-13 -20 -45 -62 -70 -94 -25 -31 -106 -138 -180 -238
-82 -111 -150 -193 -173 -208 l-37 -25 -41 19 c-23 10 -52 33 -66 51 -24 32
-56 43 -67 24 -14 -22 50 -121 78 -121 5 0 17 -7 27 -16 11 -10 37 -17 67 -17
60 -1 110 28 155 88 68 91 303 403 344 457 48 63 51 77 25 101 -26 24 -34 21
-62 -21z"/>
<path d="M3212 8045 c-91 -45 -172 -146 -172 -214 0 -16 -3 -43 -7 -61 l-6
-33 -38 44 -38 44 -26 -26 -26 -25 31 -39 c16 -21 68 -79 114 -129 46 -50 119
-131 161 -181 43 -49 107 -121 144 -160 36 -38 75 -83 87 -99 20 -28 21 -28
47 -11 15 9 27 24 27 32 0 10 -101 128 -150 173 -17 16 -61 82 -58 86 3 2 40
6 82 8 85 5 135 28 193 88 65 68 93 182 70 290 -11 53 -84 147 -151 192 -54
38 -61 40 -144 43 -78 4 -93 1 -140 -22z m219 -69 c51 -29 97 -75 127 -129 29
-51 30 -152 3 -205 -29 -57 -89 -107 -151 -128 -62 -20 -74 -20 -146 7 -86 32
-145 99 -164 186 -24 106 15 195 115 261 65 42 149 45 216 8z"/>
<path d="M7540 7835 c-61 -32 -124 -96 -155 -156 -36 -72 -36 -187 0 -265 48
-106 176 -199 262 -192 33 3 38 7 41 29 3 24 -1 27 -39 33 -120 19 -220 131
-223 250 -1 61 37 156 63 156 9 0 92 -81 186 -180 93 -99 175 -180 182 -180
31 0 98 104 114 178 12 58 -2 158 -28 201 -31 49 -88 103 -135 127 -67 34
-202 34 -268 -1z m243 -61 c92 -51 134 -132 123 -236 -6 -47 -14 -71 -33 -93
l-26 -29 -153 157 c-85 86 -154 161 -154 166 0 4 17 20 38 34 53 37 141 37
205 1z"/>
<path d="M2713 7471 c-89 -33 -144 -84 -192 -178 -30 -60 -30 -201 0 -258 33
-63 106 -131 172 -160 53 -24 68 -27 141 -23 64 4 91 11 128 32 166 96 220
312 115 459 -31 44 -77 83 -117 103 -19 9 -44 21 -54 27 -39 19 -138 19 -193
-2z m154 -71 c73 -16 157 -94 184 -170 24 -67 24 -70 -2 -140 -50 -139 -187
-205 -311 -151 -118 53 -173 128 -172 236 0 106 70 200 167 227 29 8 59 13 67
12 8 -2 38 -8 67 -14z"/>
<path d="M8019 7295 c-137 -38 -239 -167 -239 -304 0 -43 14 -101 31 -131 5
-8 15 -29 22 -45 18 -40 99 -111 143 -125 54 -18 79 -10 79 25 0 25 -5 30 -32
36 -86 17 -157 104 -169 205 -12 94 29 171 123 234 87 59 221 50 293 -20 53
-51 74 -107 73 -190 0 -44 4 -78 11 -82 49 -33 76 38 55 145 -7 37 -18 72 -26
78 -7 6 -13 18 -13 25 0 24 -77 100 -122 122 -93 44 -144 50 -229 27z"/>
<path d="M2046 6974 c-42 -41 -5 -66 334 -221 112 -51 142 -65 292 -137 76
-36 140 -66 143 -66 12 0 25 52 17 66 -5 9 -67 42 -138 75 -71 33 -156 73
-189 89 -86 41 -237 112 -330 155 -44 21 -88 41 -97 46 -11 6 -22 4 -32 -7z"/>
<path d="M8495 6816 c-15 -11 -17 -17 -8 -27 6 -8 14 -30 18 -50 6 -33 4 -37
-22 -47 -135 -51 -223 -85 -246 -97 -16 -8 -34 -15 -40 -15 -21 0 -91 -41
-115 -68 -28 -30 -42 -63 -42 -101 0 -36 42 -131 68 -154 43 -39 83 4 44 46
-34 38 -45 90 -28 130 16 39 34 51 141 91 39 15 84 33 100 41 17 7 46 19 65
25 19 7 52 19 73 26 33 12 40 12 53 0 8 -8 14 -23 14 -33 0 -10 9 -36 20 -58
11 -22 20 -45 20 -52 0 -17 21 -17 45 1 19 14 19 16 -14 96 -38 93 -38 93 38
115 47 14 59 36 37 70 -16 24 -19 25 -39 12 -12 -8 -38 -17 -59 -21 -35 -6
-37 -5 -60 35 -27 49 -37 55 -63 35z"/>
<path d="M2267 6536 c-127 -47 -207 -160 -207 -291 0 -81 25 -142 84 -203 62
-65 125 -93 223 -99 76 -5 86 -3 147 26 75 37 119 82 154 160 41 93 40 228 -2
286 -13 18 -15 18 -39 2 -25 -16 -26 -18 -11 -53 19 -44 14 -150 -8 -207 -19
-49 -83 -114 -119 -122 -16 -4 -31 -11 -34 -16 -10 -14 -105 -11 -111 4 -2 7
3 40 12 73 23 83 50 177 74 259 38 131 44 165 33 176 -18 18 -153 21 -196 5z
m129 -71 c3 -8 -1 -36 -9 -62 -9 -26 -25 -82 -37 -123 -57 -201 -72 -240 -89
-240 -19 0 -102 81 -122 120 -7 14 -13 54 -12 90 0 87 41 157 117 200 58 34
142 42 152 15z"/>
<path d="M1970 5908 c0 -7 -3 -22 -6 -34 -5 -17 3 -25 38 -44 24 -12 97 -50
163 -85 66 -35 160 -84 210 -109 49 -26 93 -50 98 -55 8 -8 -80 -51 -105 -51
-8 0 -23 -7 -34 -15 -10 -8 -27 -15 -37 -15 -11 0 -33 -6 -50 -14 -18 -8 -66
-26 -107 -40 -199 -67 -210 -74 -210 -118 0 -26 3 -30 23 -25 35 8 110 36 132
49 11 6 33 15 50 19 31 8 105 33 140 48 53 22 131 51 139 51 4 0 22 6 39 14
18 8 49 19 69 26 31 9 38 17 44 45 3 18 2 40 -3 49 -5 8 -44 34 -88 57 -44 22
-107 56 -140 73 -286 156 -365 193 -365 174z"/>
<path d="M8815 5890 c-104 -4 -281 -11 -392 -15 l-203 -8 0 -28 c0 -18 6 -29
18 -32 9 -2 158 -1 330 1 171 3 312 2 312 -1 0 -6 -53 -43 -111 -77 -15 -8
-52 -31 -84 -50 -31 -19 -64 -39 -73 -45 -9 -5 -60 -36 -112 -69 -182 -112
-193 -128 -112 -169 26 -13 115 -62 198 -108 83 -46 173 -95 200 -109 27 -14
51 -28 54 -31 3 -3 15 -11 28 -18 12 -6 22 -16 22 -20 0 -5 -146 -12 -325 -16
l-325 -7 0 -41 0 -40 133 7 c72 3 259 9 415 13 l282 6 0 31 c0 38 25 21 -270
180 -58 31 -112 61 -120 66 -8 5 -28 16 -45 24 -61 29 -179 101 -181 111 -2 6
15 21 38 35 23 14 64 40 91 58 27 17 51 32 52 32 5 0 139 83 145 90 3 3 21 14
41 25 19 11 79 46 132 79 91 55 97 61 97 91 0 30 -17 49 -38 43 -4 -1 -92 -5
-197 -8z"/>
<path d="M2225 5223 c-63 -12 -154 -63 -189 -107 -100 -125 -91 -291 23 -408
46 -46 67 -60 115 -73 120 -35 247 -4 330 79 73 73 90 116 90 221 -1 103 -20
160 -74 225 -38 45 -74 53 -85 19 -5 -15 1 -29 23 -53 100 -105 96 -277 -8
-370 -39 -34 -99 -54 -110 -35 -5 6 -11 42 -15 78 -3 36 -10 80 -15 96 -5 17
-14 75 -20 130 -10 94 -30 189 -40 198 -3 2 -14 2 -25 0z m-1 -99 c3 -9 6 -34
6 -57 1 -23 5 -62 11 -87 5 -25 14 -83 19 -130 5 -47 12 -99 15 -117 5 -29 3
-33 -20 -39 -59 -15 -163 54 -200 131 -30 65 -32 126 -6 186 39 87 156 163
175 113z"/>
<path d="M8270 4863 c-82 -35 -133 -128 -134 -244 -1 -62 3 -81 18 -98 11 -12
16 -21 11 -21 -4 0 -1 -7 6 -17 13 -15 11 -16 -25 -10 -46 7 -66 -5 -66 -39 0
-18 8 -25 38 -33 135 -35 201 -53 228 -61 44 -14 123 -31 172 -37 45 -5 112
15 146 45 77 69 117 246 82 362 -12 39 -17 45 -37 42 -36 -5 -38 -12 -24 -79
11 -52 11 -74 -1 -135 -12 -63 -19 -78 -54 -113 -38 -38 -43 -40 -103 -40 -89
0 -97 5 -85 52 5 21 16 63 23 93 7 30 18 71 24 90 25 81 3 183 -47 217 -34 22
-91 43 -117 42 -11 0 -36 -7 -55 -16z m145 -100 c34 -39 32 -93 -6 -230 -31
-111 -33 -113 -61 -113 -44 0 -103 35 -129 77 -20 31 -24 51 -24 113 1 82 20
129 73 171 39 30 112 21 147 -18z"/>
<path d="M2355 4516 c-5 -2 -30 -9 -55 -17 -163 -47 -285 -188 -303 -349 -9
-80 17 -193 72 -315 18 -38 36 -79 41 -90 54 -127 59 -135 82 -135 13 0 40 9
61 20 20 11 43 20 51 20 7 0 19 7 26 15 7 8 21 15 32 15 11 0 32 6 46 14 15 8
50 24 77 36 91 39 110 47 156 69 25 11 49 21 53 21 3 0 34 13 68 28 35 16 87
39 116 52 28 13 52 29 52 37 0 11 -25 70 -75 178 -8 17 -26 59 -41 95 -77 188
-211 296 -378 306 -39 2 -75 2 -81 0z m129 -87 c80 -14 162 -68 206 -133 19
-28 37 -55 39 -61 2 -5 14 -33 27 -61 13 -28 24 -54 24 -57 0 -3 14 -35 30
-70 17 -36 30 -67 30 -69 0 -4 -56 -31 -170 -80 -25 -11 -63 -28 -86 -39 -23
-10 -44 -19 -48 -19 -3 0 -34 -13 -68 -28 -97 -44 -118 -54 -188 -83 l-65 -28
-23 27 c-12 15 -25 38 -28 52 -3 14 -11 39 -19 55 -88 196 -98 245 -68 344 38
125 139 220 263 247 71 16 76 16 144 3z"/>
<path d="M8030 4262 c-8 -3 -18 -10 -22 -16 -21 -31 -4 -46 145 -126 210 -113
251 -155 250 -259 -1 -116 -77 -211 -176 -219 -56 -4 -69 1 -349 152 l-87 47
-17 -25 c-9 -14 -14 -32 -11 -40 3 -8 34 -29 69 -46 35 -18 95 -50 133 -71
124 -70 197 -99 251 -99 86 1 180 71 225 168 25 55 33 182 12 189 -14 5 -18
43 -5 43 4 0 25 -9 46 -21 l38 -20 17 23 c9 13 16 27 16 33 0 9 -114 75 -330
189 -55 30 -120 65 -145 79 -25 13 -52 22 -60 19z"/>
<path d="M7667 3615 c-101 -27 -185 -134 -196 -249 l-6 -59 -30 25 c-27 24
-31 25 -52 11 -35 -23 -28 -44 35 -94 31 -26 99 -86 151 -134 105 -96 171
-135 230 -135 106 0 223 103 275 242 24 66 19 102 -16 106 -21 3 -28 -1 -28
-14 0 -46 -47 -140 -96 -193 l-52 -56 -64 0 c-52 0 -71 5 -101 25 -20 14 -39
31 -41 37 -5 11 52 83 152 193 33 37 65 128 57 166 -12 68 -70 122 -145 137
-14 2 -47 -1 -73 -8z m103 -87 c45 -33 56 -77 32 -131 -21 -48 -166 -217 -186
-217 -6 0 -29 17 -50 39 -33 34 -38 46 -43 99 -5 49 -2 68 18 106 22 45 79
107 109 119 35 13 92 6 120 -15z"/>
<path d="M3013 3469 c-58 -28 -143 -107 -143 -132 0 -6 -8 -19 -17 -29 -21
-24 -30 -165 -14 -225 15 -56 110 -159 169 -184 24 -11 68 -22 99 -25 l55 -7
-126 -126 -125 -126 20 -27 c13 -18 26 -25 37 -21 24 8 612 595 612 610 0 7
-11 20 -26 29 -25 17 -26 16 -65 -22 -25 -24 -39 -33 -40 -24 -1 8 -3 44 -5
80 -3 55 -9 73 -40 118 -68 98 -149 142 -262 142 -54 0 -79 -6 -129 -31z m205
-51 c63 -16 145 -97 162 -159 14 -52 8 -135 -13 -175 -22 -43 -82 -101 -130
-126 -31 -17 -59 -22 -108 -22 -55 0 -72 4 -109 30 -25 16 -61 52 -82 79 -35
46 -38 55 -38 118 0 93 34 158 114 215 68 49 124 60 204 40z"/>
<path d="M7025 3321 c-112 -42 -213 -120 -254 -197 -44 -82 -20 -224 53 -311
14 -17 26 -34 26 -38 0 -5 15 -26 33 -49 18 -23 39 -53 46 -68 8 -15 21 -36
30 -46 9 -9 38 -50 64 -89 27 -40 62 -90 78 -113 l30 -41 30 22 c27 19 29 23
16 38 -8 9 -21 30 -30 46 l-15 30 83 -3 c68 -3 91 0 126 17 75 36 120 74 158
135 34 57 36 63 36 150 0 84 -2 95 -32 146 -38 66 -61 89 -128 126 -43 24 -61
28 -130 27 -61 0 -92 -5 -129 -22 -94 -43 -170 -137 -191 -235 -6 -29 -7 -29
-25 -10 -10 10 -32 45 -49 77 -76 141 -8 262 193 342 21 8 57 15 80 15 52 0
69 11 64 41 -3 22 -8 24 -58 26 -34 2 -74 -4 -105 -16z m288 -302 c100 -50
150 -127 149 -230 0 -58 -4 -72 -32 -110 -17 -24 -52 -60 -78 -79 -42 -31 -55
-35 -123 -38 -64 -3 -83 0 -120 18 -24 13 -50 30 -57 39 -73 91 -89 172 -52
259 26 60 73 105 144 138 64 29 115 30 169 3z"/>
<path d="M3646 3015 c-3 -9 -2 -25 4 -35 7 -14 18 -17 52 -13 84 8 206 -61
251 -142 34 -60 38 -165 8 -203 l-18 -24 -44 30 c-66 44 -115 74 -219 137 -52
32 -112 69 -132 82 -20 14 -41 22 -47 19 -5 -3 -20 -27 -33 -54 -19 -39 -23
-62 -23 -137 1 -79 4 -96 28 -135 131 -225 447 -202 556 41 31 66 29 187 -3
256 -51 110 -167 184 -297 191 -64 3 -77 1 -83 -13z m10 -302 c122 -74 147
-89 214 -131 l55 -35 -48 -43 c-36 -32 -59 -45 -93 -50 -108 -16 -197 25 -253
116 -16 28 -21 51 -21 111 0 75 11 104 37 95 7 -3 56 -31 109 -63z"/>
<path d="M6435 2742 c-87 -26 -116 -44 -174 -107 -57 -63 -64 -91 -26 -101 14
-4 27 -5 29 -3 73 104 130 140 233 147 63 4 79 1 125 -21 54 -27 105 -85 95
-109 -3 -7 -27 -21 -53 -31 -27 -10 -87 -34 -134 -52 -47 -18 -96 -37 -110
-40 -14 -4 -29 -11 -35 -15 -5 -4 -38 -17 -73 -30 -34 -12 -65 -26 -68 -31 -7
-12 41 -98 77 -137 54 -57 117 -82 207 -82 159 0 270 89 301 239 31 147 -72
327 -208 367 -83 24 -120 25 -186 6z m322 -354 c-17 -198 -289 -271 -402 -108
-15 22 -26 42 -24 44 10 9 69 36 79 36 5 0 32 9 58 21 99 43 113 49 123 49 6
0 25 7 42 15 18 8 50 21 72 28 38 13 40 13 48 -7 5 -11 7 -47 4 -78z"/>
<path d="M4403 2688 c-12 -19 -25 -39 -61 -99 -18 -30 -51 -81 -72 -114 -22
-33 -44 -69 -50 -80 -6 -11 -28 -47 -50 -80 -21 -33 -51 -80 -66 -105 -40 -66
-113 -180 -136 -214 -20 -28 -20 -29 -2 -43 39 -28 55 -12 171 170 62 99 113
181 113 182 0 2 13 23 29 47 15 24 54 84 86 133 l59 90 12 -60 c6 -33 17 -132
23 -220 6 -89 16 -176 21 -195 6 -19 10 -66 10 -105 0 -38 3 -93 6 -122 6 -43
11 -52 29 -57 13 -3 30 -8 37 -11 10 -4 29 17 58 62 24 37 72 111 105 163 34
52 64 102 68 110 17 34 185 284 194 287 10 4 30 -164 43 -377 6 -80 14 -167
20 -193 5 -26 10 -72 10 -102 0 -44 4 -57 22 -69 12 -9 30 -16 40 -16 15 0 16
9 12 88 -3 48 -10 128 -15 177 -4 50 -16 180 -24 290 -9 110 -22 227 -28 260
-12 58 -13 60 -51 70 -29 7 -41 6 -43 -2 -3 -7 -28 -49 -58 -95 -29 -46 -75
-117 -101 -158 -26 -41 -68 -106 -93 -145 -24 -38 -50 -79 -56 -90 -35 -66
-89 -135 -96 -123 -3 7 -9 56 -13 108 -4 52 -13 147 -21 210 -8 63 -18 176
-24 250 -11 154 -15 167 -44 175 -12 4 -29 9 -39 11 -9 3 -20 -1 -25 -8z"/>
<path d="M5956 2591 c-4 -5 -2 -20 3 -33 5 -12 12 -52 16 -88 4 -35 14 -82 21
-104 8 -21 14 -78 14 -128 0 -78 -3 -95 -25 -132 -24 -41 -40 -52 -135 -96
-18 -8 -24 -40 -11 -60 22 -32 139 37 183 108 l22 37 9 -45 c10 -49 20 -60 55
-60 32 0 36 19 19 92 -9 34 -25 119 -37 188 -11 69 -27 151 -35 182 -8 32 -15
71 -15 87 0 49 -9 61 -45 61 -19 0 -36 -4 -39 -9z"/>
<path d="M5557 2532 c-35 -38 -9 -102 41 -102 24 0 62 36 62 60 0 51 -69 80
-103 42z"/>
</g>
</svg>
