<?xml version="1.0" standalone="no"?>
<!DOCTYPE svg PUBLIC "-//W3C//DTD SVG 20010904//EN"
 "http://www.w3.org/TR/2001/REC-SVG-20010904/DTD/svg10.dtd">
<svg version="1.0" xmlns="http://www.w3.org/2000/svg"
 width="1080.000000pt" height="1080.000000pt" viewBox="0 0 1080.000000 1080.000000"
 preserveAspectRatio="xMidYMid meet">

<g transform="translate(0.000000,1080.000000) scale(0.100000,-0.100000)"
fill="#000000" stroke="none">
<path d="M5556 9201 c-3 -5 -10 -61 -16 -126 -6 -65 -13 -122 -16 -127 -4 -5
-12 -69 -20 -141 -7 -73 -18 -154 -23 -182 -5 -27 -11 -79 -12 -115 -4 -61 -3
-65 22 -77 14 -7 52 -14 85 -15 46 -2 59 0 60 12 1 8 8 54 15 102 l12 87 163
-6 c153 -6 166 -5 216 17 66 28 103 61 136 125 35 68 38 189 5 251 -21 40 -83
102 -121 123 -42 22 -118 43 -191 52 -42 5 -98 13 -126 18 -64 12 -182 14
-189 2z m329 -166 c74 -19 105 -40 128 -88 36 -73 -2 -158 -85 -191 -39 -16
-47 -16 -132 -1 -50 9 -96 18 -102 20 -7 2 -8 21 -3 57 4 29 8 85 8 124 1 40
6 75 13 82 17 17 102 15 173 -3z"/>
<path d="M4305 8868 c-31 -17 -65 -49 -96 -91 l-27 -38 -18 31 c-18 30 -38 38
-48 21 -4 -5 -24 -12 -45 -16 -22 -4 -45 -13 -51 -20 -13 -15 -6 -59 16 -110
7 -16 22 -57 34 -90 12 -33 26 -69 32 -80 6 -11 15 -33 19 -50 4 -16 19 -61
34 -100 14 -38 30 -84 36 -102 13 -42 28 -46 95 -20 77 30 83 43 57 109 -64
163 -95 262 -89 290 9 44 43 86 97 119 l48 30 -15 42 c-16 47 -41 87 -52 87
-4 0 -16 -6 -27 -12z"/>
<path d="M6376 8833 c-9 -26 -21 -61 -26 -78 -14 -47 -42 -128 -51 -147 -5
-10 -13 -34 -18 -55 -5 -21 -24 -76 -40 -123 -17 -46 -31 -92 -31 -103 0 -23
71 -56 121 -57 l37 0 22 73 c12 39 26 81 31 92 4 11 20 51 34 88 15 37 39 80
53 95 25 25 32 27 114 26 l86 -1 16 41 c30 78 27 88 -28 104 -45 13 -54 12
-107 -6 -33 -11 -59 -19 -59 -18 0 0 4 16 9 33 9 32 8 33 -35 52 -25 11 -60
23 -78 26 -32 7 -34 5 -50 -42z"/>
<path d="M6891 8609 c-66 -20 -171 -107 -171 -141 0 -6 -8 -20 -17 -31 -15
-16 -18 -38 -18 -127 l0 -108 38 -55 c77 -111 220 -186 334 -174 30 3 60 10
66 15 7 5 23 12 37 15 42 11 114 81 145 142 85 168 7 363 -178 445 -54 24
-185 35 -236 19z m214 -167 c28 -20 45 -42 58 -76 16 -45 17 -52 2 -103 -11
-38 -28 -66 -57 -93 -39 -39 -43 -40 -107 -40 -65 0 -68 1 -108 41 -75 74 -71
163 13 246 51 51 55 53 106 53 41 -1 62 -7 93 -28z"/>
<path d="M3650 8571 c-48 -10 -76 -26 -137 -78 -65 -55 -92 -98 -108 -176 -24
-113 17 -226 110 -303 48 -41 128 -72 185 -73 118 -2 295 103 340 201 34 75
23 89 -69 92 -29 1 -37 -4 -50 -28 -18 -34 -61 -75 -77 -76 -6 0 -17 -6 -23
-14 -29 -35 -155 -29 -183 9 -17 23 -17 24 20 46 20 13 48 29 62 36 14 7 34
18 45 25 46 30 102 64 125 75 42 22 94 54 109 68 19 18 6 49 -44 104 -58 63
-109 88 -195 94 -41 3 -91 2 -110 -2z m100 -131 c11 0 32 -11 47 -25 l28 -25
-25 -21 c-14 -11 -38 -27 -55 -35 -16 -8 -57 -31 -90 -52 -76 -48 -90 -53
-104 -39 -30 30 5 128 60 168 33 23 85 40 107 33 8 -2 22 -4 32 -4z"/>
<path d="M4627 8522 c-40 -27 -56 -53 -57 -90 0 -75 62 -120 139 -100 46 13
70 44 71 93 0 84 -89 140 -153 97z"/>
<path d="M7684 8449 c-12 -13 -19 -35 -19 -61 0 -33 7 -46 38 -74 51 -47 104
-48 142 -2 22 26 26 39 22 71 -8 62 -39 87 -107 87 -45 0 -61 -4 -76 -21z"/>
<path d="M7523 8213 c-27 -32 -62 -76 -79 -98 -16 -22 -51 -67 -79 -101 -27
-33 -79 -97 -115 -141 -64 -79 -104 -113 -133 -113 -7 0 -30 16 -50 35 -39 38
-58 43 -77 20 -7 -8 -18 -15 -24 -15 -7 0 -21 -6 -31 -14 -18 -13 -18 -14 4
-49 38 -62 128 -121 201 -133 38 -6 115 21 154 55 19 16 137 160 211 256 22
29 74 95 116 146 42 52 78 101 81 109 5 16 -91 100 -115 100 -8 0 -36 -26 -64
-57z"/>
<path d="M3085 8161 c-107 -28 -215 -139 -215 -221 0 -36 -16 -47 -39 -26 -10
9 -22 16 -27 16 -15 0 -107 -97 -103 -108 2 -5 59 -67 125 -138 67 -71 190
-202 274 -291 84 -90 157 -163 164 -163 14 0 116 96 116 109 0 6 -41 53 -92
106 -96 101 -100 114 -35 115 61 0 152 72 193 154 36 70 38 178 5 250 -30 64
-104 142 -164 172 -52 27 -150 39 -202 25z m166 -220 c57 -57 59 -61 59 -111
0 -138 -141 -218 -248 -140 -60 43 -92 95 -92 150 1 95 70 160 168 160 52 0
55 -2 113 -59z"/>
<path d="M7733 7941 c-84 -31 -144 -85 -188 -171 -25 -47 -26 -212 -1 -238 9
-10 16 -27 16 -36 0 -26 136 -162 186 -187 25 -11 57 -19 76 -17 31 3 33 6 40
48 9 61 2 77 -32 85 -40 9 -119 81 -141 130 -23 50 -24 87 -3 128 l17 31 69
-74 c38 -41 108 -119 155 -172 l86 -97 28 19 c40 29 76 75 99 127 24 56 27
164 5 207 -8 15 -15 35 -15 42 0 8 -30 45 -67 82 -105 106 -211 135 -330 93z
m225 -165 c30 -20 42 -38 55 -80 15 -48 16 -57 2 -89 -22 -54 -33 -55 -78 -6
-22 24 -66 72 -99 107 -32 34 -58 66 -58 71 0 17 47 31 92 27 31 -2 61 -12 86
-30z"/>
<path d="M2568 7560 c-81 -21 -163 -94 -213 -191 -25 -48 -28 -65 -29 -156 0
-83 3 -105 17 -121 9 -10 17 -24 17 -30 0 -23 73 -92 124 -119 44 -22 64 -26
146 -26 87 -1 99 1 145 28 69 41 116 93 156 172 30 60 33 77 33 148 0 64 -5
89 -23 124 -29 55 -104 131 -154 155 -45 21 -165 30 -219 16z m113 -161 c21
-7 57 -29 80 -50 41 -37 43 -42 47 -101 3 -53 0 -68 -20 -97 -38 -56 -72 -75
-132 -75 -64 0 -120 32 -166 96 -37 50 -38 82 -5 140 49 87 107 113 196 87z"/>
<path d="M8179 7377 c-148 -41 -239 -155 -239 -300 0 -102 30 -175 102 -253
61 -64 120 -94 188 -94 l31 0 -3 72 -3 72 -41 8 c-116 23 -165 182 -82 267 43
44 99 71 146 71 52 0 116 -46 144 -105 20 -41 21 -49 9 -95 -7 -28 -12 -52
-10 -54 2 -1 26 -17 53 -34 44 -29 52 -31 70 -18 46 30 46 178 0 268 -32 62
-133 165 -172 174 -15 4 -31 10 -37 14 -20 15 -111 19 -156 7z"/>
<path d="M1912 7038 c-5 -7 -13 -24 -17 -38 -4 -14 -14 -34 -21 -45 -24 -34
-16 -45 54 -77 37 -16 81 -36 97 -43 17 -8 65 -30 108 -49 43 -20 79 -36 81
-36 3 0 39 -16 83 -36 252 -116 300 -136 319 -132 18 3 73 100 74 129 0 10
-14 22 -32 30 -18 7 -71 30 -118 52 -47 22 -140 63 -206 92 -67 29 -148 65
-180 80 -33 15 -75 34 -94 42 -19 8 -47 21 -62 29 -32 17 -72 18 -86 2z"/>
<path d="M8609 6857 c-41 -20 -45 -25 -38 -47 13 -47 10 -59 -23 -73 -46 -20
-136 -53 -179 -66 -103 -32 -168 -107 -169 -194 0 -71 69 -217 103 -217 5 0
29 16 53 36 l44 35 -20 27 c-11 15 -23 42 -26 59 -5 28 -2 37 23 60 16 16 47
33 69 40 21 6 72 23 112 38 41 14 80 24 88 21 7 -3 21 -30 29 -61 9 -31 23
-59 30 -61 8 -3 34 4 59 15 53 23 56 35 27 109 -20 51 -15 72 17 72 26 0 104
41 99 53 -2 7 -14 40 -27 75 -12 34 -28 62 -34 62 -6 0 -38 -9 -70 -20 -33
-11 -60 -19 -62 -18 -1 2 -9 20 -17 41 -18 43 -25 44 -88 14z"/>
<path d="M2115 6585 c-95 -30 -160 -95 -200 -200 -50 -131 0 -303 108 -372 53
-34 139 -63 186 -63 88 0 186 52 243 130 61 82 73 122 73 247 0 101 -2 115
-21 134 l-22 21 -43 -24 -44 -25 3 -80 c4 -69 1 -86 -21 -129 -29 -57 -49 -76
-98 -97 -61 -25 -63 -14 -28 119 17 65 37 142 44 169 8 28 19 69 25 92 7 24
10 49 7 56 -13 33 -137 46 -212 22z m78 -170 c-2 -28 -13 -72 -49 -185 -8 -25
-14 -53 -14 -62 0 -50 -92 23 -104 83 -6 33 5 88 27 127 18 32 87 72 117 69
21 -2 25 -7 23 -32z"/>
<path d="M1825 5929 c-11 -17 -17 -123 -8 -135 4 -6 53 -32 108 -59 313 -148
311 -146 222 -171 -23 -6 -112 -36 -197 -66 l-155 -54 -6 -79 c-3 -44 -3 -83
1 -88 3 -4 37 4 76 18 38 15 87 32 109 40 76 26 130 46 150 55 11 5 54 20 95
34 185 63 174 56 182 111 3 28 7 69 7 92 l1 41 -92 45 c-51 25 -177 86 -280
136 -104 50 -192 91 -197 91 -6 0 -13 -5 -16 -11z"/>
<path d="M8458 5933 l-88 -4 0 -67 c0 -37 4 -73 8 -79 6 -9 69 -13 237 -15
l230 -3 -48 -32 c-26 -18 -50 -33 -53 -33 -2 0 -43 -26 -90 -57 -47 -32 -97
-64 -112 -72 -51 -26 -72 -52 -72 -90 0 -39 2 -40 89 -89 25 -13 83 -47 129
-73 45 -27 86 -49 89 -49 14 0 83 -53 77 -59 -3 -3 -108 -8 -232 -11 l-227 -5
0 -80 0 -80 352 4 c194 2 369 7 390 10 l38 6 3 65 c1 36 -1 70 -5 76 -7 9
-119 76 -218 129 -131 71 -253 144 -260 155 -3 5 34 35 82 66 48 31 106 68
127 83 22 14 57 36 80 49 22 12 47 28 55 35 9 7 42 29 74 47 l57 34 0 73 0 73
-312 -2 c-172 -1 -352 -4 -400 -5z"/>
<path d="M2033 5210 c-90 -32 -159 -94 -190 -170 -24 -61 -24 -206 0 -243 9
-15 17 -32 17 -39 0 -27 94 -121 144 -144 77 -36 190 -34 271 4 87 41 130 95
164 203 34 108 -15 301 -93 366 l-31 26 -42 -48 -42 -48 29 -37 c74 -94 59
-260 -26 -299 -22 -10 -26 -8 -34 15 -6 14 -10 44 -10 67 -1 23 -5 62 -11 87
-5 25 -16 92 -24 149 -20 141 -26 146 -122 111z m32 -187 c3 -16 10 -44 15
-63 5 -19 12 -64 15 -100 3 -36 9 -76 12 -89 6 -23 4 -24 -32 -18 -56 9 -112
67 -121 125 -9 59 9 114 47 146 39 33 57 33 64 -1z"/>
<path d="M8428 4936 c-77 -34 -127 -126 -129 -234 -1 -46 4 -81 15 -102 16
-32 15 -32 -9 -28 -15 3 -30 -1 -39 -11 -15 -17 -40 -120 -31 -129 9 -9 78
-32 125 -42 55 -11 153 -36 197 -51 51 -16 153 -13 193 7 39 19 90 63 90 78 0
5 6 17 14 25 7 9 23 44 35 79 23 67 30 228 12 275 -9 24 -12 24 -58 15 -26 -6
-52 -14 -57 -19 -6 -5 -9 -47 -7 -94 2 -72 -1 -92 -21 -131 -25 -50 -84 -90
-119 -79 -23 8 -23 11 -4 100 37 169 37 174 20 229 -21 63 -38 84 -93 107 -49
21 -94 23 -134 5z m101 -173 c23 -15 23 -20 17 -97 -6 -86 -22 -136 -44 -136
-22 0 -70 29 -86 52 -9 13 -16 43 -16 71 0 101 64 156 129 110z"/>
<path d="M2155 4492 c-151 -50 -238 -144 -274 -295 -14 -59 -14 -84 0 -144 21
-96 40 -149 94 -268 7 -16 20 -46 28 -65 9 -19 24 -56 36 -82 20 -49 29 -55
59 -39 9 6 48 22 86 37 38 14 77 30 85 35 23 12 109 49 115 49 5 0 83 34 171
75 17 8 75 33 130 56 55 22 102 43 104 45 6 5 -12 50 -88 217 -17 37 -31 70
-31 74 0 4 -14 37 -32 73 -21 42 -57 90 -103 136 -60 61 -79 74 -137 92 -80
26 -171 27 -243 4z m232 -179 c19 -9 51 -32 71 -52 35 -36 104 -171 117 -229
7 -35 12 -32 -200 -121 -55 -23 -109 -46 -120 -51 -67 -29 -118 -50 -124 -50
-9 0 -34 51 -70 144 -59 150 -35 247 81 335 55 41 183 54 245 24z"/>
<path d="M8200 4323 c-8 -2 -28 -31 -44 -63 -24 -51 -26 -62 -15 -76 7 -9 67
-43 132 -76 174 -87 191 -100 210 -158 15 -47 15 -53 -2 -94 -11 -23 -32 -53
-47 -66 -25 -19 -37 -21 -87 -17 -32 3 -64 10 -72 17 -29 24 -261 136 -275
133 -17 -4 -70 -99 -70 -124 0 -23 7 -28 175 -113 220 -112 267 -122 361 -77
93 46 145 138 145 256 0 76 9 91 37 63 10 -10 16 -7 29 11 27 39 64 113 61
122 -3 7 -515 271 -521 268 -1 -1 -9 -3 -17 -6z"/>
<path d="M7859 3666 c-100 -36 -189 -150 -189 -241 0 -32 -1 -33 -29 -22 -26
10 -31 7 -67 -33 -61 -68 -62 -66 111 -208 11 -9 43 -36 70 -60 150 -130 273
-128 403 7 55 57 82 100 114 181 28 69 24 85 -21 98 -70 21 -76 18 -102 -50
-16 -45 -38 -78 -75 -115 -46 -46 -58 -53 -92 -53 -26 0 -45 6 -57 20 -17 19
-16 21 26 76 96 122 108 141 120 182 7 24 9 62 5 89 -13 98 -124 163 -217 129z
m68 -168 c15 -12 17 -67 3 -100 -5 -13 -32 -48 -59 -78 l-50 -55 -31 30 c-26
25 -30 36 -30 80 0 42 5 57 31 89 18 21 41 42 53 46 23 10 64 4 83 -12z"/>
<path d="M2929 3500 c-130 -24 -239 -132 -267 -265 -12 -58 4 -156 33 -202 34
-54 116 -122 154 -128 20 -4 44 -9 54 -13 21 -9 24 -6 -106 -131 -42 -40 -77
-78 -77 -83 0 -5 23 -34 51 -63 40 -42 55 -52 68 -46 9 5 90 81 181 168 177
171 308 295 380 360 l45 41 -57 57 c-56 56 -58 57 -82 42 -22 -15 -25 -15 -30
-1 -3 9 -6 24 -6 35 0 35 -39 97 -92 149 -28 27 -56 50 -62 50 -6 0 -22 6 -36
13 -34 18 -106 26 -151 17z m160 -190 c39 -29 81 -98 81 -135 0 -33 -44 -106
-82 -136 -34 -28 -52 -34 -103 -37 -60 -4 -64 -3 -103 33 -94 84 -75 210 42
280 58 35 112 33 165 -5z"/>
<path d="M7265 3341 c-138 -47 -276 -163 -313 -264 -12 -32 -22 -71 -22 -88 0
-45 29 -128 64 -179 33 -49 206 -278 286 -378 l51 -63 59 46 c62 48 71 64 45
85 -26 22 -16 30 38 30 69 0 140 34 195 94 59 64 85 126 86 206 0 58 -4 74
-37 132 -54 96 -104 134 -212 158 -36 8 -59 7 -108 -6 -34 -8 -69 -22 -78 -30
-8 -8 -20 -14 -26 -14 -23 0 -99 -89 -117 -137 -18 -47 -21 -49 -36 -34 -9 9
-24 35 -34 58 -18 40 -18 45 -2 86 31 81 138 160 236 173 50 7 50 7 50 44 0
21 -3 52 -6 69 -6 27 -11 31 -38 30 -17 0 -53 -8 -81 -18z m212 -386 c48 -20
71 -41 94 -87 24 -47 24 -74 0 -124 -21 -44 -38 -60 -94 -92 -50 -28 -88 -28
-136 2 -125 79 -102 239 42 298 52 21 50 21 94 3z"/>
<path d="M3482 3007 c-7 -8 -9 -35 -5 -70 l6 -57 41 0 c47 0 107 -25 153 -64
41 -34 70 -117 54 -152 -14 -31 -25 -30 -70 4 -46 36 -189 132 -196 132 -2 0
-25 16 -51 35 -73 56 -103 46 -144 -50 -33 -78 -30 -160 9 -240 36 -73 78
-112 168 -157 59 -29 68 -30 151 -26 83 4 92 6 147 43 43 29 70 58 100 105 39
64 40 66 40 160 0 87 -3 99 -29 143 -36 60 -77 101 -141 142 -83 53 -209 81
-233 52z m54 -369 c60 -40 113 -76 118 -80 14 -10 -14 -39 -51 -55 -104 -43
-242 80 -203 181 5 14 13 26 18 26 5 0 58 -33 118 -72z"/>
<path d="M6610 2703 c-71 -29 -181 -127 -193 -171 -5 -21 1 -27 49 -49 l55
-25 47 49 c50 52 116 83 178 83 39 0 101 -27 109 -48 6 -17 -12 -42 -31 -42
-7 0 -46 -15 -86 -34 -124 -58 -211 -97 -250 -113 -50 -20 -49 -44 1 -115 92
-128 212 -167 362 -116 53 17 76 33 129 87 54 55 68 76 83 126 21 75 21 97 1
165 -28 95 -84 164 -166 206 -69 35 -197 34 -288 -3z m308 -315 c2 -25 -4 -48
-20 -72 -26 -40 -102 -86 -142 -86 -35 0 -103 35 -116 60 -9 17 -4 23 57 51
38 17 95 44 128 59 76 37 89 35 93 -12z"/>
<path d="M4151 2571 c-28 -42 -73 -107 -101 -146 -27 -38 -56 -81 -62 -95 -7
-14 -22 -35 -32 -47 -11 -13 -29 -39 -40 -58 -12 -19 -54 -82 -94 -140 -41
-59 -71 -112 -68 -120 5 -14 94 -45 128 -45 16 0 98 91 98 110 0 5 11 21 24
37 13 15 32 42 42 59 11 17 37 58 60 90 22 32 60 87 84 122 30 44 46 59 52 50
4 -7 8 -78 8 -158 0 -80 3 -209 7 -287 l6 -142 40 -7 c22 -3 55 -13 74 -21 26
-10 38 -11 48 -3 8 7 54 70 102 142 48 71 107 157 131 191 24 34 55 80 69 102
23 36 27 38 34 20 4 -11 8 -76 8 -145 1 -69 6 -191 13 -272 l11 -148 51 -19
c84 -30 106 -34 113 -16 5 14 0 168 -24 707 l-5 118 -37 5 c-20 4 -52 13 -71
20 -82 32 -61 49 -203 -165 -83 -126 -185 -265 -193 -263 -5 2 -10 33 -11 70
-1 38 -8 159 -14 271 l-12 203 -28 15 c-16 8 -57 20 -93 28 l-64 13 -51 -76z"/>
<path d="M6211 2545 c-18 -8 -46 -15 -62 -15 -37 0 -45 -19 -29 -73 6 -23 17
-67 25 -97 7 -30 18 -71 24 -90 6 -19 11 -62 11 -95 0 -53 -4 -64 -30 -92 -17
-18 -53 -40 -81 -50 -42 -15 -49 -21 -44 -38 4 -11 11 -44 17 -72 7 -39 15
-53 26 -53 31 0 121 60 146 97 l26 37 6 -32 c4 -18 11 -35 16 -38 5 -3 41 2
79 12 61 16 69 21 69 41 0 23 -54 250 -85 358 -8 28 -19 73 -25 100 -27 124
-29 126 -89 100z"/>
<path d="M5713 2445 c-27 -19 -46 -77 -38 -115 10 -45 48 -70 107 -70 38 0 54
5 73 24 28 29 40 66 31 102 -12 47 -50 74 -103 74 -27 0 -58 -7 -70 -15z"/>
</g>
</svg>
